<?xml version="1.0" encoding="UTF-8" standalone="no"?>
<!-- Created with Inkscape (http://www.inkscape.org/) -->

<svg
   width="273.38635mm"
   height="24.394579mm"
   viewBox="0 0 273.38635 24.394579"
   version="1.1"
   id="svg1"
   inkscape:version="1.3 (0e150ed6c4, 2023-07-21)"
   sodipodi:docname="DELPHI logos.svg"
   inkscape:export-filename="DELPHI logos.png"
   inkscape:export-xdpi="96"
   inkscape:export-ydpi="96"
   xmlns:inkscape="http://www.inkscape.org/namespaces/inkscape"
   xmlns:sodipodi="http://sodipodi.sourceforge.net/DTD/sodipodi-0.dtd"
   xmlns="http://www.w3.org/2000/svg"
   xmlns:svg="http://www.w3.org/2000/svg">
  <sodipodi:namedview
     id="namedview1"
     pagecolor="#ffffff"
     bordercolor="#000000"
     borderopacity="0.25"
     inkscape:showpageshadow="2"
     inkscape:pageopacity="0.0"
     inkscape:pagecheckerboard="0"
     inkscape:deskcolor="#d1d1d1"
     inkscape:document-units="px"
     inkscape:zoom="1.5004889"
     inkscape:cx="528.82763"
     inkscape:cy="404.20158"
     inkscape:window-width="3440"
     inkscape:window-height="1369"
     inkscape:window-x="-8"
     inkscape:window-y="-8"
     inkscape:window-maximized="1"
     inkscape:current-layer="layer1"
     inkscape:export-bgcolor="#ffffff00" />
  <defs
     id="defs1" />
  <g
     inkscape:label="Layer 1"
     inkscape:groupmode="layer"
     id="layer1"
     transform="translate(-5.1261018,-106.52504)">
    <path
       style="font-size:31.75px;font-family:'Major Mono Display';-inkscape-font-specification:'Major Mono Display';letter-spacing:0.238125px;fill:#ffffff;stroke:#ffffff;stroke-width:1.05833;stroke-linecap:square;stroke-miterlimit:5.7;paint-order:markers stroke fill"
       d="m 14.2875,109.75296 0.8255,0.8255 -7.58825,7.62 7.58825,7.58825 -0.8255,0.8255 -8.41375,-8.41375 z m 13.255618,19.39925 v -22.098 h 8.22325 q 2.413,0 4.445,1.2065 2.06375,1.2065 3.27025,3.27025 1.2065,2.032 1.2065,4.445 v 4.2545 q 0,2.413 -1.2065,4.47675 -1.2065,2.032 -3.27025,3.2385 -2.032,1.2065 -4.445,1.2065 z m 24.050618,-22.098 h 15.5575 v 1.17475 h -14.38275 v 8.9535 h 12.5095 v 1.17475 h -12.5095 v 9.62025 h 14.38275 v 1.17475 h -15.5575 z m 24.52687,22.098 v -22.098 h 1.17475 v 20.92325 h 15.39875 v 1.17475 z m 24.399864,0 h -1.174748 v -22.098 h 8.889998 q 2.2225,0 4.09575,0.9525 1.905,0.9525 3.01625,2.69875 1.11125,1.74625 1.11125,4.03225 0,2.19075 -1.143,4.03225 -1.11125,1.8415 -3.048,2.82575 -1.68275,0.85725 -4.03225,0.85725 h -7.71525 z m 0,-7.874 h 7.71525 q 2.032,0 3.33375,-0.635 1.68275,-0.79375 2.69875,-2.38125 1.016,-1.5875 1.016,-3.52425 0,-1.905 -1.016,-3.4925 -1.016,-1.5875 -2.7305,-2.38125 -1.30175,-0.635 -3.302,-0.635 h -7.71525 z m 21.38362,7.874 v -22.098 h 1.17475 v 10.44575 h 14.6685 v -10.44575 h 1.17475 v 22.098 h -1.17475 v -10.4775 h -14.6685 v 10.4775 z m 39.41762,-22.098 v 1.17475 h -6.604 v 19.7485 h 6.604 v 1.17475 h -14.31925 v -1.17475 h 6.57225 v -19.7485 h -6.57225 v -1.17475 z m 8.04861,22.1615 h 17.018 v 1.17475 h -17.018 z m 32.55962,-12.954 9.2075,12.8905 h -17.78 v -22.098 h 17.78 z m -0.8255,0.8255 -6.57225,6.57225 v 4.318 h 14.351 z m 28.68613,-9.398 q 1.49225,0.762 2.286,2.0955 0.8255,1.3335 0.8255,2.9845 0,1.55575 -0.8255,2.88925 -0.79375,1.30175 -2.2225,2.06375 1.68275,0.5715 2.794,2.0955 1.11125,1.524 1.11125,3.3655 0,1.651 -0.8255,3.048 -0.8255,1.397 -2.19075,2.159 -0.6985,0.381 -1.55575,0.5715 -0.85725,0.1905 -2.286,0.1905 h -9.271 v -22.098 h 8.8265 q 2.0955,0 3.33375,0.635 z m -0.508,9.11225 q 1.143,-0.5715 1.80975,-1.651 0.66675,-1.0795 0.66675,-2.38125 0,-1.4605 -0.762,-2.54 -0.762,-1.11125 -1.93675,-1.61925 -0.889,-0.381 -2.9845,-0.381 h -7.3025 v 9.0805 h 7.874 q 1.651,0 2.63525,-0.508 z m 0.762,10.69975 q 1.17475,-0.60325 1.87325,-1.74625 0.6985,-1.17475 0.6985,-2.54 0,-1.42875 -0.73025,-2.57175 -0.73025,-1.17475 -1.9685,-1.74625 -0.9525,-0.4445 -2.57175,-0.4445 h -8.5725 v 9.55675 h 8.15975 q 1.2065,0 1.905,-0.127 0.6985,-0.127 1.2065,-0.381 z m 18.81186,-20.447 q 2.413,0 4.445,1.2065 2.06375,1.2065 3.27025,3.27025 1.2065,2.032 1.2065,4.445 v 4.2545 q 0,2.413 -1.2065,4.47675 -1.2065,2.032 -3.27025,3.2385 -2.032,1.2065 -4.445,1.2065 h -8.15975 v -22.098 z m 7.747,8.92175 q 0,-2.0955 -1.04775,-3.8735 -1.04775,-1.778 -2.8575,-2.82575 -1.778,-1.04775 -3.8735,-1.04775 h -6.95325 v 19.7485 h 6.95325 q 2.0955,0 3.8735,-1.04775 1.80975,-1.04775 2.8575,-2.82575 1.04775,-1.778 1.04775,-3.8735 z m 19.51037,2.2225 -7.58825,-7.62 0.8255,-0.8255 8.41375,8.4455 -8.41375,8.41375 -0.8255,-0.8255 z"
       id="text1-8"
       inkscape:label="DELPHI_LOGO_WHITE"
       aria-label="&lt;Delphi_Kbd&gt;"
       inkscape:export-filename=".\DELPHI logo white.png"
       inkscape:export-xdpi="96"
       inkscape:export-ydpi="96" />
  </g>
</svg>
