M48
; DRILL file {KiCad (6.0.1)} date Sat Dec  3 11:16:11 2022
; FORMAT={-:-/ absolute / inch / decimal}
; #@! TF.CreationDate,2022-12-03T11:16:11-05:00
; #@! TF.GenerationSoftware,Kicad,Pcbnew,(6.0.1)
; #@! TF.FileFunction,NonPlated,1,2,NPTH
FMAT,2
INCH
; #@! TA.AperFunction,NonPlated,NPTH,ComponentDrill
T1C0.0310
; #@! TA.AperFunction,NonPlated,NPTH,ComponentDrill
T2C0.0390
; #@! TA.AperFunction,NonPlated,NPTH,ComponentDrill
T3C0.0670
; #@! TA.AperFunction,NonPlated,NPTH,ComponentDrill
T4C0.1181
; #@! TA.AperFunction,NonPlated,NPTH,ComponentDrill
T5C0.1350
%
G90
G05
T1
X5.575Y-1.95
X5.575Y-2.0
X5.575Y-2.05
X5.575Y-2.1
X5.575Y-3.45
X5.575Y-3.5
X5.575Y-3.55
X5.575Y-3.6
T2
X1.5555Y-2.2346
X1.5555Y-2.9846
X1.5555Y-3.7346
X2.3055Y-2.2346
X2.3055Y-2.9846
X2.3055Y-3.7346
X3.0555Y-1.4846
X3.0555Y-2.2346
X3.0555Y-2.9846
X3.8055Y-1.4846
X3.8055Y-2.2346
X3.8055Y-2.9846
X3.8055Y-3.7346
X4.5555Y-1.4846
X4.5555Y-2.2346
X4.5555Y-2.9846
X5.3055Y-1.4846
X5.3055Y-2.2346
X5.3055Y-2.9846
X5.3055Y-3.7346
X6.2555Y-1.4846
X6.2555Y-2.2346
X6.2555Y-2.9846
X7.0055Y-1.4846
X7.0055Y-2.2346
X7.0055Y-2.9846
X7.0055Y-3.7346
X7.7555Y-1.4846
X7.7555Y-2.2346
X7.7555Y-2.9846
X7.7555Y-3.7346
X8.5055Y-1.4846
X8.5055Y-2.2346
X8.5055Y-2.9846
X9.2555Y-2.2346
X9.2555Y-2.9846
X9.2555Y-3.7346
X10.0055Y-2.2346
X10.0055Y-2.9846
X10.0055Y-3.7346
T3
X1.1335Y-2.4
X1.1335Y-3.15
X1.1335Y-3.9
X1.5665Y-2.4
X1.5665Y-3.15
X1.5665Y-3.9
X1.8835Y-2.4
X1.8835Y-3.15
X1.8835Y-3.9
X2.3165Y-2.4
X2.3165Y-3.15
X2.3165Y-3.9
X2.6335Y-1.65
X2.6335Y-2.4
X2.6335Y-3.15
X3.0665Y-1.65
X3.0665Y-2.4
X3.0665Y-3.15
X3.3835Y-1.65
X3.3835Y-2.4
X3.3835Y-3.15
X3.3835Y-3.9
X3.8165Y-1.65
X3.8165Y-2.4
X3.8165Y-3.15
X3.8165Y-3.9
X4.1335Y-1.65
X4.1335Y-2.4
X4.1335Y-3.15
X4.1335Y-3.9
X4.5665Y-1.65
X4.5665Y-2.4
X4.5665Y-3.15
X4.8835Y-1.65
X4.8835Y-2.4
X4.8835Y-3.15
X5.3165Y-1.65
X5.3165Y-2.4
X5.3165Y-3.15
X5.3165Y-3.9
X5.8335Y-1.65
X5.8335Y-2.4
X5.8335Y-3.15
X5.8335Y-3.9
X6.2665Y-1.65
X6.2665Y-2.4
X6.2665Y-3.15
X6.5835Y-1.65
X6.5835Y-2.4
X6.5835Y-3.15
X7.0165Y-1.65
X7.0165Y-2.4
X7.0165Y-3.15
X7.0165Y-3.9
X7.3335Y-1.65
X7.3335Y-2.4
X7.3335Y-3.15
X7.3335Y-3.9
X7.7665Y-1.65
X7.7665Y-2.4
X7.7665Y-3.15
X7.7665Y-3.9
X8.0835Y-1.65
X8.0835Y-2.4
X8.0835Y-3.15
X8.5165Y-1.65
X8.5165Y-2.4
X8.5165Y-3.15
X8.8335Y-2.4
X8.8335Y-3.15
X8.8335Y-3.9
X9.2665Y-2.4
X9.2665Y-3.15
X9.2665Y-3.9
X9.5835Y-2.4
X9.5835Y-3.15
X9.5835Y-3.9
X10.0165Y-2.4
X10.0165Y-3.15
X10.0165Y-3.9
T4
X1.1531Y-2.5476
X1.1531Y-3.2976
X1.1531Y-4.0476
X1.35Y-2.6343
X1.35Y-3.3843
X1.35Y-4.1343
X1.9031Y-2.5476
X1.9031Y-3.2976
X1.9031Y-4.0476
X2.1Y-2.6343
X2.1Y-3.3843
X2.1Y-4.1343
X2.6531Y-1.7976
X2.6531Y-2.5476
X2.6531Y-3.2976
X2.85Y-1.8843
X2.85Y-2.6343
X2.85Y-3.3843
X3.4031Y-1.7976
X3.4031Y-2.5476
X3.4031Y-3.2976
X3.4031Y-4.0476
X3.6Y-1.8843
X3.6Y-2.6343
X3.6Y-3.3843
X3.6Y-4.1343
X4.1531Y-1.7976
X4.1531Y-2.5476
X4.1531Y-3.2976
X4.1531Y-4.0476
X4.35Y-1.8843
X4.35Y-2.6343
X4.35Y-3.3843
X4.35Y-4.1343
X4.725Y-3.6657
X4.9031Y-1.7976
X4.9031Y-2.5476
X4.9031Y-3.2976
X4.9031Y-4.0476
X4.9219Y-3.7524
X5.1Y-1.8843
X5.1Y-2.6343
X5.1Y-3.3843
X5.1Y-4.1343
X5.8531Y-1.7976
X5.8531Y-2.5476
X5.8531Y-3.2976
X5.8531Y-4.0476
X6.05Y-1.8843
X6.05Y-2.6343
X6.05Y-3.3843
X6.05Y-4.1343
X6.425Y-3.6657
X6.6031Y-1.7976
X6.6031Y-2.5476
X6.6031Y-3.2976
X6.6031Y-4.0476
X6.6219Y-3.7524
X6.8Y-1.8843
X6.8Y-2.6343
X6.8Y-3.3843
X6.8Y-4.1343
X7.3531Y-1.7976
X7.3531Y-2.5476
X7.3531Y-3.2976
X7.3531Y-4.0476
X7.55Y-1.8843
X7.55Y-2.6343
X7.55Y-3.3843
X7.55Y-4.1343
X8.1031Y-1.7976
X8.1031Y-2.5476
X8.1031Y-3.2976
X8.3Y-1.8843
X8.3Y-2.6343
X8.3Y-3.3843
X8.8531Y-2.5476
X8.8531Y-3.2976
X8.8531Y-4.0476
X9.05Y-2.6343
X9.05Y-3.3843
X9.05Y-4.1343
X9.6031Y-2.5476
X9.6031Y-3.2976
X9.6031Y-4.0476
X9.8Y-2.6343
X9.8Y-3.3843
X9.8Y-4.1343
T5
X1.35Y-2.4
X1.35Y-3.15
X1.35Y-3.9
X2.1Y-2.4
X2.1Y-3.15
X2.1Y-3.9
X2.85Y-1.65
X2.85Y-2.4
X2.85Y-3.15
X3.6Y-1.65
X3.6Y-2.4
X3.6Y-3.15
X3.6Y-3.9
X4.35Y-1.65
X4.35Y-2.4
X4.35Y-3.15
X4.35Y-3.9
X4.725Y-3.9
X5.1Y-1.65
X5.1Y-2.4
X5.1Y-3.15
X5.1Y-3.9
X6.05Y-1.65
X6.05Y-2.4
X6.05Y-3.15
X6.05Y-3.9
X6.425Y-3.9
X6.8Y-1.65
X6.8Y-2.4
X6.8Y-3.15
X6.8Y-3.9
X7.55Y-1.65
X7.55Y-2.4
X7.55Y-3.15
X7.55Y-3.9
X8.3Y-1.65
X8.3Y-2.4
X8.3Y-3.15
X9.05Y-2.4
X9.05Y-3.15
X9.05Y-3.9
X9.8Y-2.4
X9.8Y-3.15
X9.8Y-3.9
T3
G00X4.5085Y-3.9
M15
G01X4.5715Y-3.9
M16
G05
G00X4.8785Y-3.9
M15
G01X4.9415Y-3.9
M16
G05
G00X6.2085Y-3.9
M15
G01X6.2715Y-3.9
M16
G05
G00X6.5785Y-3.9
M15
G01X6.6415Y-3.9
M16
G05
T0
M30
