%TF.GenerationSoftware,KiCad,Pcbnew,(6.0.1)*%
%TF.CreationDate,2022-12-03T11:16:14-05:00*%
%TF.ProjectId,DELPHI,44454c50-4849-42e6-9b69-6361645f7063,rev?*%
%TF.SameCoordinates,Original*%
%TF.FileFunction,Profile,NP*%
%FSLAX46Y46*%
G04 Gerber Fmt 4.6, Leading zero omitted, Abs format (unit mm)*
G04 Created by KiCad (PCBNEW (6.0.1)) date 2022-12-03 11:16:14*
%MOMM*%
%LPD*%
G01*
G04 APERTURE LIST*
%TA.AperFunction,Profile*%
%ADD10C,0.100000*%
%TD*%
G04 APERTURE END LIST*
D10*
X82550000Y-110490000D02*
X138430000Y-110490000D01*
X218440000Y-107950000D02*
G75*
G03*
X220980000Y-110490000I2540001J1D01*
G01*
X142240000Y-54610000D02*
X142240000Y-86360000D01*
X142240000Y-54610000D02*
G75*
G03*
X140970000Y-54610000I-635000J0D01*
G01*
X80010000Y-93980000D02*
G75*
G03*
X77470000Y-91440000I-2540001J-1D01*
G01*
X218440000Y-107950000D02*
X218440000Y-93980000D01*
X142240000Y-107950000D02*
X142240000Y-92710000D01*
X142240000Y-107950000D02*
G75*
G03*
X144780000Y-110490000I2540001J1D01*
G01*
X138430000Y-110490000D02*
G75*
G03*
X140970000Y-107950000I-1J2540001D01*
G01*
X67310000Y-91440000D02*
G75*
G03*
X64770000Y-93980000I1J-2540001D01*
G01*
X80010000Y-107950000D02*
G75*
G03*
X82550000Y-110490000I2540001J1D01*
G01*
X142240000Y-92710000D02*
G75*
G03*
X140970000Y-92710000I-635000J0D01*
G01*
X80010000Y-107950000D02*
X80010000Y-93980000D01*
X62230000Y-110490000D02*
G75*
G03*
X64770000Y-107950000I-1J2540001D01*
G01*
X140970000Y-33020000D02*
X140970000Y-48260000D01*
X144780000Y-30480000D02*
X257810000Y-30480000D01*
X140970000Y-86360000D02*
G75*
G03*
X142240000Y-86360000I635000J0D01*
G01*
X205740000Y-91440000D02*
G75*
G03*
X203200000Y-93980000I1J-2540001D01*
G01*
X25400000Y-30480000D02*
X138430000Y-30480000D01*
X22860000Y-107950000D02*
X22860000Y-33020000D01*
X22860000Y-107950000D02*
G75*
G03*
X25400000Y-110490000I2540001J1D01*
G01*
X257810000Y-110490000D02*
X220980000Y-110490000D01*
X200660000Y-110490000D02*
G75*
G03*
X203200000Y-107950000I-1J2540001D01*
G01*
X25400000Y-30480000D02*
G75*
G03*
X22860000Y-33020000I1J-2540001D01*
G01*
X64770000Y-93980000D02*
X64770000Y-107950000D01*
X260350000Y-33020000D02*
X260350000Y-107950000D01*
X260350000Y-33020000D02*
G75*
G03*
X257810000Y-30480000I-2540001J-1D01*
G01*
X215900000Y-91440000D02*
X205740000Y-91440000D01*
X77470000Y-91440000D02*
X67310000Y-91440000D01*
X140970000Y-48260000D02*
G75*
G03*
X142240000Y-48260000I635000J0D01*
G01*
X140970000Y-86360000D02*
X140970000Y-54610000D01*
X144780000Y-30480000D02*
G75*
G03*
X142240000Y-33020000I1J-2540001D01*
G01*
X257810000Y-110490000D02*
G75*
G03*
X260350000Y-107950000I-1J2540001D01*
G01*
X200660000Y-110490000D02*
X144780000Y-110490000D01*
X142240000Y-48260000D02*
X142240000Y-33020000D01*
X140970000Y-92710000D02*
X140970000Y-107950000D01*
X218440000Y-93980000D02*
G75*
G03*
X215900000Y-91440000I-2540001J-1D01*
G01*
X25400000Y-110490000D02*
X62230000Y-110490000D01*
X203200000Y-93980000D02*
X203200000Y-107950000D01*
X140970000Y-33020000D02*
G75*
G03*
X138430000Y-30480000I-2540001J-1D01*
G01*
M02*
