M48
; DRILL file {KiCad (6.0.1)} date Sat Dec  3 11:16:11 2022
; FORMAT={-:-/ absolute / inch / decimal}
; #@! TF.CreationDate,2022-12-03T11:16:11-05:00
; #@! TF.GenerationSoftware,Kicad,Pcbnew,(6.0.1)
; #@! TF.FileFunction,Plated,1,2,PTH
FMAT,2
INCH
; #@! TA.AperFunction,Plated,PTH,ViaDrill
T1C0.0157
; #@! TA.AperFunction,Plated,PTH,ComponentDrill
T2C0.0157
; #@! TA.AperFunction,Plated,PTH,ComponentDrill
T3C0.0433
; #@! TA.AperFunction,Plated,PTH,ComponentDrill
T4C0.0866
%
G90
G05
T1
X1.0Y-2.2
X1.0Y-2.95
X1.0Y-3.7
X1.35Y-2.275
X1.35Y-2.775
X1.35Y-3.025
X1.35Y-3.775
X1.75Y-2.2
X1.75Y-2.95
X1.75Y-3.7
X2.1Y-2.275
X2.1Y-3.025
X2.1Y-3.775
X2.5Y-1.45
X2.5Y-2.2
X2.5Y-2.95
X2.85Y-1.525
X2.85Y-2.275
X2.85Y-3.025
X3.25Y-1.45
X3.25Y-2.2
X3.25Y-2.95
X3.3Y-3.7
X3.6Y-1.525
X3.6Y-2.275
X3.6Y-3.025
X3.6Y-3.775
X4.0Y-1.45
X4.0Y-2.2
X4.0Y-2.95
X4.0Y-3.7
X4.35Y-1.525
X4.35Y-2.275
X4.35Y-3.025
X4.35Y-3.775
X4.75Y-1.45
X4.75Y-2.2
X4.75Y-2.95
X5.1Y-1.525
X5.1Y-2.275
X5.1Y-3.025
X5.75Y-1.45
X5.75Y-2.2
X5.75Y-2.95
X5.75Y-3.7
X6.05Y-1.525
X6.05Y-2.275
X6.05Y-3.025
X6.05Y-3.725
X6.25Y-3.8
X6.375Y-3.8
X6.5Y-1.45
X6.5Y-2.2
X6.5Y-2.95
X6.8Y-1.525
X6.8Y-2.275
X6.8Y-3.025
X7.1Y-3.7
X7.25Y-1.45
X7.25Y-2.2
X7.25Y-2.95
X7.55Y-1.525
X7.55Y-2.275
X7.55Y-3.025
X7.55Y-3.775
X8.0Y-1.45
X8.0Y-2.2
X8.0Y-2.95
X8.3Y-1.525
X8.3Y-2.275
X8.3Y-3.025
X8.75Y-2.2
X8.75Y-2.95
X8.75Y-3.7
X9.05Y-2.275
X9.05Y-3.025
X9.05Y-3.775
X9.5Y-2.2
X9.5Y-2.95
X9.5Y-3.7
X9.8Y-2.275
X9.8Y-3.025
X9.8Y-3.775
T2
X1.66Y-3.525
X1.6791Y-3.4791
X1.6791Y-3.5709
X1.725Y-3.46
X1.725Y-3.59
X1.7709Y-3.4791
X1.7709Y-3.5709
X1.79Y-3.525
X2.035Y-1.65
X2.0541Y-1.6041
X2.0541Y-1.6959
X2.1Y-1.585
X2.1Y-1.715
X2.1459Y-1.6041
X2.1459Y-1.6959
X2.165Y-1.65
X3.16Y-2.775
X3.1791Y-2.7291
X3.1791Y-2.8209
X3.225Y-2.71
X3.225Y-2.84
X3.2709Y-2.7291
X3.2709Y-2.8209
X3.29Y-2.775
X3.91Y-3.525
X3.9291Y-3.4791
X3.9291Y-3.5709
X3.975Y-3.46
X3.975Y-3.59
X4.0209Y-3.4791
X4.0209Y-3.5709
X4.04Y-3.525
X4.66Y-2.025
X4.6791Y-1.9791
X4.6791Y-2.0709
X4.725Y-1.96
X4.725Y-2.09
X4.7709Y-1.9791
X4.7709Y-2.0709
X4.79Y-2.025
X6.36Y-2.025
X6.3791Y-1.9791
X6.3791Y-2.0709
X6.425Y-1.96
X6.425Y-2.09
X6.4709Y-1.9791
X6.4709Y-2.0709
X6.49Y-2.025
X7.11Y-3.525
X7.1291Y-3.4791
X7.1291Y-3.5709
X7.175Y-3.46
X7.175Y-3.59
X7.2209Y-3.4791
X7.2209Y-3.5709
X7.24Y-3.525
X7.86Y-2.775
X7.8791Y-2.7291
X7.8791Y-2.8209
X7.925Y-2.71
X7.925Y-2.84
X7.9709Y-2.7291
X7.9709Y-2.8209
X7.99Y-2.775
X8.985Y-1.65
X9.0041Y-1.6041
X9.0041Y-1.6959
X9.05Y-1.585
X9.05Y-1.715
X9.0959Y-1.6041
X9.0959Y-1.6959
X9.115Y-1.65
X9.335Y-3.525
X9.3541Y-3.4791
X9.3541Y-3.5709
X9.4Y-3.46
X9.4Y-3.59
X9.4459Y-3.4791
X9.4459Y-3.5709
X9.465Y-3.525
T3
X1.0503Y-1.3367
X1.0503Y-1.4367
X1.0503Y-1.5367
X1.0503Y-1.6367
X1.0503Y-1.7367
X1.0503Y-1.8367
X1.0503Y-1.9367
X1.6503Y-1.3367
X1.6503Y-1.4367
X1.6503Y-1.5367
X1.6503Y-1.6367
X1.6503Y-1.7367
X1.6503Y-1.8367
X1.6503Y-1.9367
X9.5003Y-1.3367
X9.5003Y-1.4367
X9.5003Y-1.5367
X9.5003Y-1.6367
X9.5003Y-1.7367
X9.5003Y-1.8367
X9.5003Y-1.9367
X10.1003Y-1.3367
X10.1003Y-1.4367
X10.1003Y-1.5367
X10.1003Y-1.6367
X10.1003Y-1.7367
X10.1003Y-1.8367
X10.1003Y-1.9367
T4
X1.725Y-3.525
X2.1Y-1.65
X3.225Y-2.775
X3.975Y-3.525
X4.725Y-2.025
X6.425Y-2.025
X7.175Y-3.525
X7.925Y-2.775
X9.05Y-1.65
X9.4Y-3.525
T0
M30
