%TF.GenerationSoftware,KiCad,Pcbnew,(6.0.1)*%
%TF.CreationDate,2022-12-01T17:44:09-05:00*%
%TF.ProjectId,DELPHI,44454c50-4849-42e6-9b69-6361645f7063,rev?*%
%TF.SameCoordinates,Original*%
%TF.FileFunction,Legend,Top*%
%TF.FilePolarity,Positive*%
%FSLAX46Y46*%
G04 Gerber Fmt 4.6, Leading zero omitted, Abs format (unit mm)*
G04 Created by KiCad (PCBNEW (6.0.1)) date 2022-12-01 17:44:09*
%MOMM*%
%LPD*%
G01*
G04 APERTURE LIST*
%ADD10C,0.150000*%
G04 APERTURE END LIST*
D10*
X228430089Y-49315714D02*
X228584851Y-49982380D01*
X228906279Y-49315714D01*
X229727708Y-49982380D02*
X229156279Y-49982380D01*
X229441994Y-49982380D02*
X229566994Y-48982380D01*
X229453898Y-49125238D01*
X229346755Y-49220476D01*
X229245565Y-49268095D01*
X230168184Y-49887142D02*
X230209851Y-49934761D01*
X230156279Y-49982380D01*
X230114613Y-49934761D01*
X230168184Y-49887142D01*
X230156279Y-49982380D01*
X230947946Y-48982380D02*
X231043184Y-48982380D01*
X231132470Y-49030000D01*
X231174136Y-49077619D01*
X231209851Y-49172857D01*
X231233660Y-49363333D01*
X231203898Y-49601428D01*
X231132470Y-49791904D01*
X231072946Y-49887142D01*
X231019375Y-49934761D01*
X230918184Y-49982380D01*
X230822946Y-49982380D01*
X230733660Y-49934761D01*
X230691994Y-49887142D01*
X230656279Y-49791904D01*
X230632470Y-49601428D01*
X230662232Y-49363333D01*
X230733660Y-49172857D01*
X230793184Y-49077619D01*
X230846755Y-49030000D01*
X230947946Y-48982380D01*
X225965803Y-48077380D02*
X226090803Y-47077380D01*
X226328898Y-47077380D01*
X226465803Y-47125000D01*
X226549136Y-47220238D01*
X226584851Y-47315476D01*
X226608660Y-47505952D01*
X226590803Y-47648809D01*
X226519375Y-47839285D01*
X226459851Y-47934523D01*
X226352708Y-48029761D01*
X226203898Y-48077380D01*
X225965803Y-48077380D01*
X226977708Y-47982142D02*
X227019375Y-48029761D01*
X226965803Y-48077380D01*
X226924136Y-48029761D01*
X226977708Y-47982142D01*
X226965803Y-48077380D01*
X227507470Y-47553571D02*
X227840803Y-47553571D01*
X227918184Y-48077380D02*
X227441994Y-48077380D01*
X227566994Y-47077380D01*
X228043184Y-47077380D01*
X228358660Y-47982142D02*
X228400327Y-48029761D01*
X228346755Y-48077380D01*
X228305089Y-48029761D01*
X228358660Y-47982142D01*
X228346755Y-48077380D01*
X229299136Y-48077380D02*
X228822946Y-48077380D01*
X228947946Y-47077380D01*
X229644375Y-47982142D02*
X229686041Y-48029761D01*
X229632470Y-48077380D01*
X229590803Y-48029761D01*
X229644375Y-47982142D01*
X229632470Y-48077380D01*
X230108660Y-48077380D02*
X230233660Y-47077380D01*
X230614613Y-47077380D01*
X230703898Y-47125000D01*
X230745565Y-47172619D01*
X230781279Y-47267857D01*
X230763422Y-47410714D01*
X230703898Y-47505952D01*
X230650327Y-47553571D01*
X230549136Y-47601190D01*
X230168184Y-47601190D01*
X231120565Y-47982142D02*
X231162232Y-48029761D01*
X231108660Y-48077380D01*
X231066994Y-48029761D01*
X231120565Y-47982142D01*
X231108660Y-48077380D01*
X231584851Y-48077380D02*
X231709851Y-47077380D01*
X231650327Y-47553571D02*
X232221755Y-47553571D01*
X232156279Y-48077380D02*
X232281279Y-47077380D01*
X232644375Y-47982142D02*
X232686041Y-48029761D01*
X232632470Y-48077380D01*
X232590803Y-48029761D01*
X232644375Y-47982142D01*
X232632470Y-48077380D01*
X233108660Y-48077380D02*
X233233660Y-47077380D01*
X233596755Y-47982142D02*
X233638422Y-48029761D01*
X233584851Y-48077380D01*
X233543184Y-48029761D01*
X233596755Y-47982142D01*
X233584851Y-48077380D01*
X49435803Y-48077380D02*
X49560803Y-47077380D01*
X49798898Y-47077380D01*
X49935803Y-47125000D01*
X50019136Y-47220238D01*
X50054851Y-47315476D01*
X50078660Y-47505952D01*
X50060803Y-47648809D01*
X49989375Y-47839285D01*
X49929851Y-47934523D01*
X49822708Y-48029761D01*
X49673898Y-48077380D01*
X49435803Y-48077380D01*
X50447708Y-47982142D02*
X50489375Y-48029761D01*
X50435803Y-48077380D01*
X50394136Y-48029761D01*
X50447708Y-47982142D01*
X50435803Y-48077380D01*
X50977470Y-47553571D02*
X51310803Y-47553571D01*
X51388184Y-48077380D02*
X50911994Y-48077380D01*
X51036994Y-47077380D01*
X51513184Y-47077380D01*
X51828660Y-47982142D02*
X51870327Y-48029761D01*
X51816755Y-48077380D01*
X51775089Y-48029761D01*
X51828660Y-47982142D01*
X51816755Y-48077380D01*
X52769136Y-48077380D02*
X52292946Y-48077380D01*
X52417946Y-47077380D01*
X53114375Y-47982142D02*
X53156041Y-48029761D01*
X53102470Y-48077380D01*
X53060803Y-48029761D01*
X53114375Y-47982142D01*
X53102470Y-48077380D01*
X53578660Y-48077380D02*
X53703660Y-47077380D01*
X54084613Y-47077380D01*
X54173898Y-47125000D01*
X54215565Y-47172619D01*
X54251279Y-47267857D01*
X54233422Y-47410714D01*
X54173898Y-47505952D01*
X54120327Y-47553571D01*
X54019136Y-47601190D01*
X53638184Y-47601190D01*
X54590565Y-47982142D02*
X54632232Y-48029761D01*
X54578660Y-48077380D01*
X54536994Y-48029761D01*
X54590565Y-47982142D01*
X54578660Y-48077380D01*
X55054851Y-48077380D02*
X55179851Y-47077380D01*
X55120327Y-47553571D02*
X55691755Y-47553571D01*
X55626279Y-48077380D02*
X55751279Y-47077380D01*
X56114375Y-47982142D02*
X56156041Y-48029761D01*
X56102470Y-48077380D01*
X56060803Y-48029761D01*
X56114375Y-47982142D01*
X56102470Y-48077380D01*
X56578660Y-48077380D02*
X56703660Y-47077380D01*
X57066755Y-47982142D02*
X57108422Y-48029761D01*
X57054851Y-48077380D01*
X57013184Y-48029761D01*
X57066755Y-47982142D01*
X57054851Y-48077380D01*
X51900089Y-49315714D02*
X52054851Y-49982380D01*
X52376279Y-49315714D01*
X53197708Y-49982380D02*
X52626279Y-49982380D01*
X52911994Y-49982380D02*
X53036994Y-48982380D01*
X52923898Y-49125238D01*
X52816755Y-49220476D01*
X52715565Y-49268095D01*
X53638184Y-49887142D02*
X53679851Y-49934761D01*
X53626279Y-49982380D01*
X53584613Y-49934761D01*
X53638184Y-49887142D01*
X53626279Y-49982380D01*
X54417946Y-48982380D02*
X54513184Y-48982380D01*
X54602470Y-49030000D01*
X54644136Y-49077619D01*
X54679851Y-49172857D01*
X54703660Y-49363333D01*
X54673898Y-49601428D01*
X54602470Y-49791904D01*
X54542946Y-49887142D01*
X54489375Y-49934761D01*
X54388184Y-49982380D01*
X54292946Y-49982380D01*
X54203660Y-49934761D01*
X54161994Y-49887142D01*
X54126279Y-49791904D01*
X54102470Y-49601428D01*
X54132232Y-49363333D01*
X54203660Y-49172857D01*
X54263184Y-49077619D01*
X54316755Y-49030000D01*
X54417946Y-48982380D01*
%TO.C,*%
%TO.C,SW17*%
X117490000Y-106060000D02*
X116490000Y-106060000D01*
X117490000Y-92060000D02*
X117490000Y-93060000D01*
X103490000Y-106060000D02*
X104490000Y-106060000D01*
X103490000Y-93060000D02*
X103490000Y-92060000D01*
X117490000Y-92060000D02*
X116490000Y-92060000D01*
X104490000Y-92060000D02*
X103490000Y-92060000D01*
X103490000Y-106060000D02*
X103490000Y-105060000D01*
X117490000Y-105060000D02*
X117490000Y-106060000D01*
X116490000Y-106060000D02*
X117490000Y-106060000D01*
%TO.C,SW5*%
X47340000Y-73010000D02*
X46340000Y-73010000D01*
X60340000Y-87010000D02*
X59340000Y-87010000D01*
X46340000Y-74010000D02*
X46340000Y-73010000D01*
X60340000Y-73010000D02*
X59340000Y-73010000D01*
X59340000Y-87010000D02*
X60340000Y-87010000D01*
X60340000Y-73010000D02*
X60340000Y-74010000D01*
X60340000Y-86010000D02*
X60340000Y-87010000D01*
X46340000Y-87010000D02*
X46340000Y-86010000D01*
X46340000Y-87010000D02*
X47340000Y-87010000D01*
%TO.C,SW25A*%
X169195000Y-106060000D02*
X170195000Y-106060000D01*
X170195000Y-105060000D02*
X170195000Y-106060000D01*
X157195000Y-92060000D02*
X156195000Y-92060000D01*
X170195000Y-92060000D02*
X169195000Y-92060000D01*
X156195000Y-92060000D02*
X157195000Y-92060000D01*
X156195000Y-93060000D02*
X156195000Y-92060000D01*
X156195000Y-106060000D02*
X157195000Y-106060000D01*
X170195000Y-92060000D02*
X170195000Y-93060000D01*
X156195000Y-106060000D02*
X156195000Y-105060000D01*
%TO.C,SW10*%
X98440000Y-34910000D02*
X98440000Y-35910000D01*
X98440000Y-48910000D02*
X97440000Y-48910000D01*
X84440000Y-35910000D02*
X84440000Y-34910000D01*
X85440000Y-34910000D02*
X84440000Y-34910000D01*
X98440000Y-34910000D02*
X97440000Y-34910000D01*
X84440000Y-48910000D02*
X84440000Y-47910000D01*
X98440000Y-47910000D02*
X98440000Y-48910000D01*
X97440000Y-48910000D02*
X98440000Y-48910000D01*
X84440000Y-48910000D02*
X85440000Y-48910000D01*
%TO.C,SW28*%
X165720000Y-87010000D02*
X165720000Y-86010000D01*
X165720000Y-74010000D02*
X165720000Y-73010000D01*
X179720000Y-73010000D02*
X178720000Y-73010000D01*
X179720000Y-87010000D02*
X178720000Y-87010000D01*
X166720000Y-73010000D02*
X165720000Y-73010000D01*
X179720000Y-73010000D02*
X179720000Y-74010000D01*
X179720000Y-86010000D02*
X179720000Y-87010000D01*
X165720000Y-87010000D02*
X166720000Y-87010000D01*
X178720000Y-87010000D02*
X179720000Y-87010000D01*
%TO.C,SW33*%
X184770000Y-106060000D02*
X185770000Y-106060000D01*
X198770000Y-92060000D02*
X198770000Y-93060000D01*
X184770000Y-93060000D02*
X184770000Y-92060000D01*
X198770000Y-105060000D02*
X198770000Y-106060000D01*
X184770000Y-106060000D02*
X184770000Y-105060000D01*
X197770000Y-106060000D02*
X198770000Y-106060000D01*
X198770000Y-106060000D02*
X197770000Y-106060000D01*
X185770000Y-92060000D02*
X184770000Y-92060000D01*
X198770000Y-92060000D02*
X197770000Y-92060000D01*
%TO.C,SW27*%
X179720000Y-53960000D02*
X179720000Y-54960000D01*
X166720000Y-53960000D02*
X165720000Y-53960000D01*
X165720000Y-54960000D02*
X165720000Y-53960000D01*
X179720000Y-67960000D02*
X178720000Y-67960000D01*
X179720000Y-66960000D02*
X179720000Y-67960000D01*
X165720000Y-67960000D02*
X165720000Y-66960000D01*
X165720000Y-67960000D02*
X166720000Y-67960000D01*
X179720000Y-53960000D02*
X178720000Y-53960000D01*
X178720000Y-67960000D02*
X179720000Y-67960000D01*
%TO.C,SW4*%
X60340000Y-53960000D02*
X59340000Y-53960000D01*
X47340000Y-53960000D02*
X46340000Y-53960000D01*
X60340000Y-66960000D02*
X60340000Y-67960000D01*
X46340000Y-67960000D02*
X47340000Y-67960000D01*
X60340000Y-67960000D02*
X59340000Y-67960000D01*
X46340000Y-54960000D02*
X46340000Y-53960000D01*
X59340000Y-67960000D02*
X60340000Y-67960000D01*
X46340000Y-67960000D02*
X46340000Y-66960000D01*
X60340000Y-53960000D02*
X60340000Y-54960000D01*
%TO.C,SW2*%
X27290000Y-74010000D02*
X27290000Y-73010000D01*
X41290000Y-86010000D02*
X41290000Y-87010000D01*
X27290000Y-87010000D02*
X27290000Y-86010000D01*
X40290000Y-87010000D02*
X41290000Y-87010000D01*
X41290000Y-87010000D02*
X40290000Y-87010000D01*
X27290000Y-87010000D02*
X28290000Y-87010000D01*
X28290000Y-73010000D02*
X27290000Y-73010000D01*
X41290000Y-73010000D02*
X41290000Y-74010000D01*
X41290000Y-73010000D02*
X40290000Y-73010000D01*
%TO.C,SW20*%
X136540000Y-86010000D02*
X136540000Y-87010000D01*
X123540000Y-73010000D02*
X122540000Y-73010000D01*
X136540000Y-73010000D02*
X136540000Y-74010000D01*
X122540000Y-87010000D02*
X123540000Y-87010000D01*
X136540000Y-87010000D02*
X135540000Y-87010000D01*
X122540000Y-87010000D02*
X122540000Y-86010000D01*
X122540000Y-74010000D02*
X122540000Y-73010000D01*
X136540000Y-73010000D02*
X135540000Y-73010000D01*
X135540000Y-87010000D02*
X136540000Y-87010000D01*
%TO.C,SW23*%
X160670000Y-53960000D02*
X160670000Y-54960000D01*
X146670000Y-67960000D02*
X146670000Y-66960000D01*
X147670000Y-53960000D02*
X146670000Y-53960000D01*
X146670000Y-54960000D02*
X146670000Y-53960000D01*
X146670000Y-67960000D02*
X147670000Y-67960000D01*
X160670000Y-53960000D02*
X159670000Y-53960000D01*
X160670000Y-67960000D02*
X159670000Y-67960000D01*
X160670000Y-66960000D02*
X160670000Y-67960000D01*
X159670000Y-67960000D02*
X160670000Y-67960000D01*
%TO.C,SW26*%
X179720000Y-47910000D02*
X179720000Y-48910000D01*
X179720000Y-34910000D02*
X179720000Y-35910000D01*
X165720000Y-48910000D02*
X166720000Y-48910000D01*
X165720000Y-48910000D02*
X165720000Y-47910000D01*
X179720000Y-48910000D02*
X178720000Y-48910000D01*
X166720000Y-34910000D02*
X165720000Y-34910000D01*
X165720000Y-35910000D02*
X165720000Y-34910000D01*
X179720000Y-34910000D02*
X178720000Y-34910000D01*
X178720000Y-48910000D02*
X179720000Y-48910000D01*
%TO.C,SW8*%
X66390000Y-53960000D02*
X65390000Y-53960000D01*
X79390000Y-67960000D02*
X78390000Y-67960000D01*
X79390000Y-66960000D02*
X79390000Y-67960000D01*
X79390000Y-53960000D02*
X79390000Y-54960000D01*
X65390000Y-54960000D02*
X65390000Y-53960000D01*
X65390000Y-67960000D02*
X65390000Y-66960000D01*
X78390000Y-67960000D02*
X79390000Y-67960000D01*
X65390000Y-67960000D02*
X66390000Y-67960000D01*
X79390000Y-53960000D02*
X78390000Y-53960000D01*
%TO.C,SW24*%
X146670000Y-87010000D02*
X146670000Y-86010000D01*
X160670000Y-73010000D02*
X159670000Y-73010000D01*
X146670000Y-87010000D02*
X147670000Y-87010000D01*
X146670000Y-74010000D02*
X146670000Y-73010000D01*
X160670000Y-73010000D02*
X160670000Y-74010000D01*
X160670000Y-86010000D02*
X160670000Y-87010000D01*
X160670000Y-87010000D02*
X159670000Y-87010000D01*
X159670000Y-87010000D02*
X160670000Y-87010000D01*
X147670000Y-73010000D02*
X146670000Y-73010000D01*
%TO.C,SW12*%
X98440000Y-73010000D02*
X98440000Y-74010000D01*
X84440000Y-74010000D02*
X84440000Y-73010000D01*
X98440000Y-87010000D02*
X97440000Y-87010000D01*
X98440000Y-73010000D02*
X97440000Y-73010000D01*
X85440000Y-73010000D02*
X84440000Y-73010000D01*
X84440000Y-87010000D02*
X85440000Y-87010000D01*
X97440000Y-87010000D02*
X98440000Y-87010000D01*
X84440000Y-87010000D02*
X84440000Y-86010000D01*
X98440000Y-86010000D02*
X98440000Y-87010000D01*
%TO.C,SW19*%
X135540000Y-67960000D02*
X136540000Y-67960000D01*
X122540000Y-67960000D02*
X122540000Y-66960000D01*
X136540000Y-66960000D02*
X136540000Y-67960000D01*
X136540000Y-53960000D02*
X136540000Y-54960000D01*
X122540000Y-67960000D02*
X123540000Y-67960000D01*
X123540000Y-53960000D02*
X122540000Y-53960000D01*
X136540000Y-53960000D02*
X135540000Y-53960000D01*
X122540000Y-54960000D02*
X122540000Y-53960000D01*
X136540000Y-67960000D02*
X135540000Y-67960000D01*
%TO.C,SW6*%
X60340000Y-92060000D02*
X60340000Y-93060000D01*
X46340000Y-106060000D02*
X47340000Y-106060000D01*
X59340000Y-106060000D02*
X60340000Y-106060000D01*
X46340000Y-93060000D02*
X46340000Y-92060000D01*
X47340000Y-92060000D02*
X46340000Y-92060000D01*
X60340000Y-105060000D02*
X60340000Y-106060000D01*
X60340000Y-92060000D02*
X59340000Y-92060000D01*
X60340000Y-106060000D02*
X59340000Y-106060000D01*
X46340000Y-106060000D02*
X46340000Y-105060000D01*
%TO.C,SW7*%
X78390000Y-48910000D02*
X79390000Y-48910000D01*
X65390000Y-48910000D02*
X66390000Y-48910000D01*
X66390000Y-34910000D02*
X65390000Y-34910000D01*
X65390000Y-48910000D02*
X65390000Y-47910000D01*
X79390000Y-34910000D02*
X78390000Y-34910000D01*
X79390000Y-47910000D02*
X79390000Y-48910000D01*
X65390000Y-35910000D02*
X65390000Y-34910000D01*
X79390000Y-34910000D02*
X79390000Y-35910000D01*
X79390000Y-48910000D02*
X78390000Y-48910000D01*
%TO.C,SW25*%
X146670000Y-106060000D02*
X146670000Y-105060000D01*
X146670000Y-106060000D02*
X147670000Y-106060000D01*
X160670000Y-92060000D02*
X159670000Y-92060000D01*
X159670000Y-106060000D02*
X160670000Y-106060000D01*
X146670000Y-93060000D02*
X146670000Y-92060000D01*
X147670000Y-92060000D02*
X146670000Y-92060000D01*
X160670000Y-106060000D02*
X159670000Y-106060000D01*
X160670000Y-92060000D02*
X160670000Y-93060000D01*
X160670000Y-105060000D02*
X160670000Y-106060000D01*
%TO.C,SW34*%
X203820000Y-48910000D02*
X203820000Y-47910000D01*
X203820000Y-48910000D02*
X204820000Y-48910000D01*
X217820000Y-34910000D02*
X216820000Y-34910000D01*
X217820000Y-48910000D02*
X216820000Y-48910000D01*
X217820000Y-47910000D02*
X217820000Y-48910000D01*
X203820000Y-35910000D02*
X203820000Y-34910000D01*
X204820000Y-34910000D02*
X203820000Y-34910000D01*
X216820000Y-48910000D02*
X217820000Y-48910000D01*
X217820000Y-34910000D02*
X217820000Y-35910000D01*
%TO.C,SW18*%
X122540000Y-35910000D02*
X122540000Y-34910000D01*
X122540000Y-48910000D02*
X122540000Y-47910000D01*
X136540000Y-34910000D02*
X136540000Y-35910000D01*
X135540000Y-48910000D02*
X136540000Y-48910000D01*
X122540000Y-48910000D02*
X123540000Y-48910000D01*
X136540000Y-48910000D02*
X135540000Y-48910000D01*
X123540000Y-34910000D02*
X122540000Y-34910000D01*
X136540000Y-47910000D02*
X136540000Y-48910000D01*
X136540000Y-34910000D02*
X135540000Y-34910000D01*
%TO.C,SW21A*%
X113015000Y-93060000D02*
X113015000Y-92060000D01*
X126015000Y-106060000D02*
X127015000Y-106060000D01*
X113015000Y-106060000D02*
X113015000Y-105060000D01*
X127015000Y-92060000D02*
X127015000Y-93060000D01*
X113015000Y-106060000D02*
X114015000Y-106060000D01*
X114015000Y-92060000D02*
X113015000Y-92060000D01*
X127015000Y-105060000D02*
X127015000Y-106060000D01*
X113015000Y-92060000D02*
X114015000Y-92060000D01*
X127015000Y-92060000D02*
X126015000Y-92060000D01*
%TO.C,SW37*%
X222870000Y-67960000D02*
X222870000Y-66960000D01*
X236870000Y-53960000D02*
X236870000Y-54960000D01*
X235870000Y-67960000D02*
X236870000Y-67960000D01*
X223870000Y-53960000D02*
X222870000Y-53960000D01*
X236870000Y-53960000D02*
X235870000Y-53960000D01*
X236870000Y-67960000D02*
X235870000Y-67960000D01*
X236870000Y-66960000D02*
X236870000Y-67960000D01*
X222870000Y-54960000D02*
X222870000Y-53960000D01*
X222870000Y-67960000D02*
X223870000Y-67960000D01*
%TO.C,SW9*%
X79390000Y-73010000D02*
X79390000Y-74010000D01*
X66390000Y-73010000D02*
X65390000Y-73010000D01*
X79390000Y-73010000D02*
X78390000Y-73010000D01*
X65390000Y-87010000D02*
X66390000Y-87010000D01*
X65390000Y-74010000D02*
X65390000Y-73010000D01*
X65390000Y-87010000D02*
X65390000Y-86010000D01*
X79390000Y-86010000D02*
X79390000Y-87010000D01*
X79390000Y-87010000D02*
X78390000Y-87010000D01*
X78390000Y-87010000D02*
X79390000Y-87010000D01*
%TO.C,SW36*%
X203820000Y-74010000D02*
X203820000Y-73010000D01*
X217820000Y-73010000D02*
X216820000Y-73010000D01*
X203820000Y-87010000D02*
X204820000Y-87010000D01*
X216820000Y-87010000D02*
X217820000Y-87010000D01*
X203820000Y-87010000D02*
X203820000Y-86010000D01*
X217820000Y-86010000D02*
X217820000Y-87010000D01*
X217820000Y-73010000D02*
X217820000Y-74010000D01*
X204820000Y-73010000D02*
X203820000Y-73010000D01*
X217820000Y-87010000D02*
X216820000Y-87010000D01*
%TO.C,SW21*%
X136540000Y-106060000D02*
X135540000Y-106060000D01*
X136540000Y-92060000D02*
X136540000Y-93060000D01*
X136540000Y-105060000D02*
X136540000Y-106060000D01*
X122540000Y-106060000D02*
X123540000Y-106060000D01*
X122540000Y-93060000D02*
X122540000Y-92060000D01*
X122540000Y-106060000D02*
X122540000Y-105060000D01*
X135540000Y-106060000D02*
X136540000Y-106060000D01*
X136540000Y-92060000D02*
X135540000Y-92060000D01*
X123540000Y-92060000D02*
X122540000Y-92060000D01*
%TO.C,SW3*%
X27290000Y-106060000D02*
X27290000Y-105060000D01*
X27290000Y-93060000D02*
X27290000Y-92060000D01*
X41290000Y-105060000D02*
X41290000Y-106060000D01*
X41290000Y-92060000D02*
X41290000Y-93060000D01*
X27290000Y-106060000D02*
X28290000Y-106060000D01*
X40290000Y-106060000D02*
X41290000Y-106060000D01*
X28290000Y-92060000D02*
X27290000Y-92060000D01*
X41290000Y-92060000D02*
X40290000Y-92060000D01*
X41290000Y-106060000D02*
X40290000Y-106060000D01*
%TO.C,SW32*%
X184770000Y-74010000D02*
X184770000Y-73010000D01*
X198770000Y-73010000D02*
X197770000Y-73010000D01*
X185770000Y-73010000D02*
X184770000Y-73010000D01*
X198770000Y-73010000D02*
X198770000Y-74010000D01*
X197770000Y-87010000D02*
X198770000Y-87010000D01*
X184770000Y-87010000D02*
X185770000Y-87010000D01*
X198770000Y-87010000D02*
X197770000Y-87010000D01*
X198770000Y-86010000D02*
X198770000Y-87010000D01*
X184770000Y-87010000D02*
X184770000Y-86010000D01*
%TO.C,SW35*%
X203820000Y-54960000D02*
X203820000Y-53960000D01*
X216820000Y-67960000D02*
X217820000Y-67960000D01*
X217820000Y-53960000D02*
X217820000Y-54960000D01*
X217820000Y-67960000D02*
X216820000Y-67960000D01*
X203820000Y-67960000D02*
X203820000Y-66960000D01*
X203820000Y-67960000D02*
X204820000Y-67960000D01*
X204820000Y-53960000D02*
X203820000Y-53960000D01*
X217820000Y-66960000D02*
X217820000Y-67960000D01*
X217820000Y-53960000D02*
X216820000Y-53960000D01*
%TO.C,SW38*%
X222870000Y-74010000D02*
X222870000Y-73010000D01*
X222870000Y-87010000D02*
X223870000Y-87010000D01*
X236870000Y-87010000D02*
X235870000Y-87010000D01*
X236870000Y-73010000D02*
X235870000Y-73010000D01*
X236870000Y-73010000D02*
X236870000Y-74010000D01*
X236870000Y-86010000D02*
X236870000Y-87010000D01*
X235870000Y-87010000D02*
X236870000Y-87010000D01*
X222870000Y-87010000D02*
X222870000Y-86010000D01*
X223870000Y-73010000D02*
X222870000Y-73010000D01*
%TO.C,SW39*%
X222870000Y-106060000D02*
X222870000Y-105060000D01*
X223870000Y-92060000D02*
X222870000Y-92060000D01*
X236870000Y-92060000D02*
X236870000Y-93060000D01*
X236870000Y-105060000D02*
X236870000Y-106060000D01*
X236870000Y-92060000D02*
X235870000Y-92060000D01*
X222870000Y-93060000D02*
X222870000Y-92060000D01*
X222870000Y-106060000D02*
X223870000Y-106060000D01*
X235870000Y-106060000D02*
X236870000Y-106060000D01*
X236870000Y-106060000D02*
X235870000Y-106060000D01*
%TO.C,SW40*%
X254920000Y-67960000D02*
X255920000Y-67960000D01*
X241920000Y-67960000D02*
X241920000Y-66960000D01*
X241920000Y-67960000D02*
X242920000Y-67960000D01*
X255920000Y-67960000D02*
X254920000Y-67960000D01*
X241920000Y-54960000D02*
X241920000Y-53960000D01*
X255920000Y-53960000D02*
X255920000Y-54960000D01*
X255920000Y-66960000D02*
X255920000Y-67960000D01*
X242920000Y-53960000D02*
X241920000Y-53960000D01*
X255920000Y-53960000D02*
X254920000Y-53960000D01*
%TO.C,SW14*%
X117490000Y-47910000D02*
X117490000Y-48910000D01*
X103490000Y-48910000D02*
X104490000Y-48910000D01*
X103490000Y-35910000D02*
X103490000Y-34910000D01*
X117490000Y-34910000D02*
X117490000Y-35910000D01*
X117490000Y-34910000D02*
X116490000Y-34910000D01*
X104490000Y-34910000D02*
X103490000Y-34910000D01*
X117490000Y-48910000D02*
X116490000Y-48910000D01*
X103490000Y-48910000D02*
X103490000Y-47910000D01*
X116490000Y-48910000D02*
X117490000Y-48910000D01*
%TO.C,SW22*%
X160670000Y-47910000D02*
X160670000Y-48910000D01*
X160670000Y-34910000D02*
X159670000Y-34910000D01*
X160670000Y-34910000D02*
X160670000Y-35910000D01*
X159670000Y-48910000D02*
X160670000Y-48910000D01*
X146670000Y-35910000D02*
X146670000Y-34910000D01*
X146670000Y-48910000D02*
X146670000Y-47910000D01*
X160670000Y-48910000D02*
X159670000Y-48910000D01*
X147670000Y-34910000D02*
X146670000Y-34910000D01*
X146670000Y-48910000D02*
X147670000Y-48910000D01*
%TO.C,SW11*%
X98440000Y-53960000D02*
X98440000Y-54960000D01*
X84440000Y-67960000D02*
X84440000Y-66960000D01*
X98440000Y-53960000D02*
X97440000Y-53960000D01*
X84440000Y-67960000D02*
X85440000Y-67960000D01*
X98440000Y-67960000D02*
X97440000Y-67960000D01*
X85440000Y-53960000D02*
X84440000Y-53960000D01*
X84440000Y-54960000D02*
X84440000Y-53960000D01*
X97440000Y-67960000D02*
X98440000Y-67960000D01*
X98440000Y-66960000D02*
X98440000Y-67960000D01*
%TO.C,SW13*%
X84440000Y-106060000D02*
X84440000Y-105060000D01*
X98440000Y-106060000D02*
X97440000Y-106060000D01*
X98440000Y-105060000D02*
X98440000Y-106060000D01*
X84440000Y-106060000D02*
X85440000Y-106060000D01*
X98440000Y-92060000D02*
X97440000Y-92060000D01*
X97440000Y-106060000D02*
X98440000Y-106060000D01*
X84440000Y-93060000D02*
X84440000Y-92060000D01*
X98440000Y-92060000D02*
X98440000Y-93060000D01*
X85440000Y-92060000D02*
X84440000Y-92060000D01*
%TO.C,SW42*%
X242920000Y-92060000D02*
X241920000Y-92060000D01*
X254920000Y-106060000D02*
X255920000Y-106060000D01*
X255920000Y-106060000D02*
X254920000Y-106060000D01*
X255920000Y-92060000D02*
X254920000Y-92060000D01*
X241920000Y-106060000D02*
X241920000Y-105060000D01*
X255920000Y-92060000D02*
X255920000Y-93060000D01*
X241920000Y-93060000D02*
X241920000Y-92060000D01*
X255920000Y-105060000D02*
X255920000Y-106060000D01*
X241920000Y-106060000D02*
X242920000Y-106060000D01*
%TO.C,SW31*%
X184770000Y-54960000D02*
X184770000Y-53960000D01*
X198770000Y-53960000D02*
X198770000Y-54960000D01*
X198770000Y-67960000D02*
X197770000Y-67960000D01*
X198770000Y-66960000D02*
X198770000Y-67960000D01*
X198770000Y-53960000D02*
X197770000Y-53960000D01*
X197770000Y-67960000D02*
X198770000Y-67960000D01*
X184770000Y-67960000D02*
X185770000Y-67960000D01*
X185770000Y-53960000D02*
X184770000Y-53960000D01*
X184770000Y-67960000D02*
X184770000Y-66960000D01*
%TO.C,SW30*%
X184770000Y-48910000D02*
X184770000Y-47910000D01*
X185770000Y-34910000D02*
X184770000Y-34910000D01*
X197770000Y-48910000D02*
X198770000Y-48910000D01*
X198770000Y-34910000D02*
X198770000Y-35910000D01*
X198770000Y-48910000D02*
X197770000Y-48910000D01*
X198770000Y-34910000D02*
X197770000Y-34910000D01*
X198770000Y-47910000D02*
X198770000Y-48910000D01*
X184770000Y-48910000D02*
X185770000Y-48910000D01*
X184770000Y-35910000D02*
X184770000Y-34910000D01*
%TO.C,SW15*%
X104490000Y-53960000D02*
X103490000Y-53960000D01*
X103490000Y-67960000D02*
X104490000Y-67960000D01*
X117490000Y-53960000D02*
X117490000Y-54960000D01*
X116490000Y-67960000D02*
X117490000Y-67960000D01*
X117490000Y-67960000D02*
X116490000Y-67960000D01*
X103490000Y-54960000D02*
X103490000Y-53960000D01*
X103490000Y-67960000D02*
X103490000Y-66960000D01*
X117490000Y-66960000D02*
X117490000Y-67960000D01*
X117490000Y-53960000D02*
X116490000Y-53960000D01*
%TO.C,SW1*%
X28290000Y-53960000D02*
X27290000Y-53960000D01*
X41290000Y-53960000D02*
X41290000Y-54960000D01*
X27290000Y-67960000D02*
X27290000Y-66960000D01*
X41290000Y-67960000D02*
X40290000Y-67960000D01*
X40290000Y-67960000D02*
X41290000Y-67960000D01*
X27290000Y-67960000D02*
X28290000Y-67960000D01*
X41290000Y-53960000D02*
X40290000Y-53960000D01*
X41290000Y-66960000D02*
X41290000Y-67960000D01*
X27290000Y-54960000D02*
X27290000Y-53960000D01*
%TO.C,SW29*%
X165720000Y-106060000D02*
X166720000Y-106060000D01*
X178720000Y-106060000D02*
X179720000Y-106060000D01*
X165720000Y-93060000D02*
X165720000Y-92060000D01*
X165720000Y-106060000D02*
X165720000Y-105060000D01*
X179720000Y-92060000D02*
X179720000Y-93060000D01*
X179720000Y-106060000D02*
X178720000Y-106060000D01*
X179720000Y-105060000D02*
X179720000Y-106060000D01*
X166720000Y-92060000D02*
X165720000Y-92060000D01*
X179720000Y-92060000D02*
X178720000Y-92060000D01*
%TO.C,SW16*%
X103490000Y-87010000D02*
X103490000Y-86010000D01*
X117490000Y-73010000D02*
X116490000Y-73010000D01*
X117490000Y-86010000D02*
X117490000Y-87010000D01*
X103490000Y-87010000D02*
X104490000Y-87010000D01*
X117490000Y-73010000D02*
X117490000Y-74010000D01*
X117490000Y-87010000D02*
X116490000Y-87010000D01*
X116490000Y-87010000D02*
X117490000Y-87010000D01*
X103490000Y-74010000D02*
X103490000Y-73010000D01*
X104490000Y-73010000D02*
X103490000Y-73010000D01*
%TO.C,SW41*%
X254920000Y-87010000D02*
X255920000Y-87010000D01*
X255920000Y-73010000D02*
X255920000Y-74010000D01*
X241920000Y-74010000D02*
X241920000Y-73010000D01*
X241920000Y-87010000D02*
X241920000Y-86010000D01*
X241920000Y-87010000D02*
X242920000Y-87010000D01*
X255920000Y-87010000D02*
X254920000Y-87010000D01*
X255920000Y-73010000D02*
X254920000Y-73010000D01*
X242920000Y-73010000D02*
X241920000Y-73010000D01*
X255920000Y-86010000D02*
X255920000Y-87010000D01*
%TD*%
M02*
