%TF.GenerationSoftware,KiCad,Pcbnew,(6.0.1)*%
%TF.CreationDate,2022-12-01T17:44:09-05:00*%
%TF.ProjectId,DELPHI,44454c50-4849-42e6-9b69-6361645f7063,rev?*%
%TF.SameCoordinates,Original*%
%TF.FileFunction,Soldermask,Bot*%
%TF.FilePolarity,Negative*%
%FSLAX46Y46*%
G04 Gerber Fmt 4.6, Leading zero omitted, Abs format (unit mm)*
G04 Created by KiCad (PCBNEW (6.0.1)) date 2022-12-01 17:44:09*
%MOMM*%
%LPD*%
G01*
G04 APERTURE LIST*
%ADD10C,0.700000*%
%ADD11C,4.400000*%
%ADD12C,3.000000*%
%ADD13C,3.429000*%
%ADD14C,1.701800*%
%ADD15R,2.600000X2.600000*%
%ADD16C,0.990600*%
%ADD17C,0.787400*%
%ADD18O,3.302000X1.701800*%
%ADD19O,2.748280X1.998980*%
%ADD20R,1.200000X0.900000*%
G04 APERTURE END LIST*
D10*
%TO.C,REF\u002A\u002A*%
X120015000Y-53085000D03*
X118848274Y-50268274D03*
X118365000Y-51435000D03*
X121181726Y-52601726D03*
X121665000Y-51435000D03*
D11*
X120015000Y-51435000D03*
D10*
X120015000Y-49785000D03*
X121181726Y-50268274D03*
X118848274Y-52601726D03*
%TD*%
D12*
%TO.C,SW17*%
X105490000Y-102810000D03*
X110490000Y-105010000D03*
D13*
X110490000Y-99060000D03*
D14*
X104990000Y-99060000D03*
D15*
X113765000Y-105010000D03*
X102215000Y-102810000D03*
%TD*%
D10*
%TO.C,REF\u002A\u002A*%
X228220000Y-41910000D03*
D11*
X229870000Y-41910000D03*
D10*
X231036726Y-40743274D03*
X229870000Y-43560000D03*
X228703274Y-43076726D03*
X231520000Y-41910000D03*
X228703274Y-40743274D03*
X229870000Y-40260000D03*
X231036726Y-43076726D03*
%TD*%
D12*
%TO.C,SW5*%
X53340000Y-85960000D03*
D13*
X53340000Y-80010000D03*
D16*
X58560000Y-75810000D03*
D14*
X47840000Y-80010000D03*
X58840000Y-80010000D03*
D12*
X48340000Y-83760000D03*
D15*
X56615000Y-85960000D03*
X45065000Y-83760000D03*
%TD*%
D12*
%TO.C,SW25A*%
X168195000Y-95310000D03*
D13*
X163195000Y-99060000D03*
D12*
X163195000Y-93110000D03*
D15*
X159920000Y-93110000D03*
X171470000Y-95310000D03*
%TD*%
D16*
%TO.C,SW10*%
X96660000Y-37710000D03*
D12*
X86440000Y-45660000D03*
D14*
X85940000Y-41910000D03*
D12*
X91440000Y-47860000D03*
D14*
X96940000Y-41910000D03*
D13*
X91440000Y-41910000D03*
D15*
X94715000Y-47860000D03*
X83165000Y-45660000D03*
%TD*%
D10*
%TO.C,REF\u002A\u002A*%
X237593274Y-90701726D03*
X240410000Y-89535000D03*
X239926726Y-88368274D03*
X237593274Y-88368274D03*
X237110000Y-89535000D03*
X239926726Y-90701726D03*
X238760000Y-87885000D03*
D11*
X238760000Y-89535000D03*
D10*
X238760000Y-91185000D03*
%TD*%
D16*
%TO.C,SW28*%
X177940000Y-75810000D03*
D12*
X172720000Y-85960000D03*
X167720000Y-83760000D03*
D14*
X167220000Y-80010000D03*
X178220000Y-80010000D03*
D13*
X172720000Y-80010000D03*
D15*
X175995000Y-85960000D03*
X164445000Y-83760000D03*
%TD*%
D14*
%TO.C,SW33*%
X186270000Y-99060000D03*
D12*
X191770000Y-105010000D03*
D14*
X197270000Y-99060000D03*
D16*
X196990000Y-94860000D03*
D13*
X191770000Y-99060000D03*
D12*
X186770000Y-102810000D03*
D15*
X195045000Y-105010000D03*
X183495000Y-102810000D03*
%TD*%
D14*
%TO.C,SW27*%
X178220000Y-60960000D03*
D12*
X172720000Y-66910000D03*
D13*
X172720000Y-60960000D03*
D12*
X167720000Y-64710000D03*
D14*
X167220000Y-60960000D03*
D16*
X177940000Y-56760000D03*
D15*
X175995000Y-66910000D03*
X164445000Y-64710000D03*
%TD*%
D12*
%TO.C,SW4*%
X48340000Y-64710000D03*
D13*
X53340000Y-60960000D03*
D16*
X58560000Y-56760000D03*
D14*
X58840000Y-60960000D03*
X47840000Y-60960000D03*
D12*
X53340000Y-66910000D03*
D15*
X56615000Y-66910000D03*
X45065000Y-64710000D03*
%TD*%
D17*
%TO.C,*%
X141605000Y-53340000D03*
%TD*%
D10*
%TO.C,REF\u002A\u002A*%
X42648274Y-88368274D03*
X44981726Y-90701726D03*
X44981726Y-88368274D03*
X42648274Y-90701726D03*
X45465000Y-89535000D03*
X42165000Y-89535000D03*
D11*
X43815000Y-89535000D03*
D10*
X43815000Y-87885000D03*
X43815000Y-91185000D03*
%TD*%
D12*
%TO.C,SW2*%
X29290000Y-83760000D03*
X34290000Y-85960000D03*
D14*
X39790000Y-80010000D03*
D16*
X39510000Y-75810000D03*
D13*
X34290000Y-80010000D03*
D14*
X28790000Y-80010000D03*
D15*
X37565000Y-85960000D03*
X26015000Y-83760000D03*
%TD*%
D18*
%TO.C,*%
X167894000Y-99060000D03*
%TD*%
D16*
%TO.C,SW20*%
X134760000Y-75810000D03*
D13*
X129540000Y-80010000D03*
D12*
X124540000Y-83760000D03*
D14*
X124040000Y-80010000D03*
D12*
X129540000Y-85960000D03*
D14*
X135040000Y-80010000D03*
D15*
X132815000Y-85960000D03*
X121265000Y-83760000D03*
%TD*%
D10*
%TO.C,REF\u002A\u002A*%
X52173274Y-43076726D03*
X53340000Y-43560000D03*
X52173274Y-40743274D03*
X53340000Y-40260000D03*
X51690000Y-41910000D03*
D11*
X53340000Y-41910000D03*
D10*
X54506726Y-43076726D03*
X54506726Y-40743274D03*
X54990000Y-41910000D03*
%TD*%
D13*
%TO.C,SW23*%
X153670000Y-60960000D03*
D16*
X158890000Y-56760000D03*
D14*
X148170000Y-60960000D03*
X159170000Y-60960000D03*
D12*
X148670000Y-64710000D03*
X153670000Y-66910000D03*
D15*
X156945000Y-66910000D03*
X145395000Y-64710000D03*
%TD*%
D17*
%TO.C,*%
X141605000Y-49530000D03*
%TD*%
D12*
%TO.C,SW26*%
X172720000Y-47860000D03*
D16*
X177940000Y-37710000D03*
D12*
X167720000Y-45660000D03*
D14*
X178220000Y-41910000D03*
X167220000Y-41910000D03*
D13*
X172720000Y-41910000D03*
D15*
X175995000Y-47860000D03*
X164445000Y-45660000D03*
%TD*%
D12*
%TO.C,SW8*%
X67390000Y-64710000D03*
D16*
X77610000Y-56760000D03*
D14*
X77890000Y-60960000D03*
D13*
X72390000Y-60960000D03*
D12*
X72390000Y-66910000D03*
D14*
X66890000Y-60960000D03*
D15*
X75665000Y-66910000D03*
X64115000Y-64710000D03*
%TD*%
D11*
%TO.C,REF\u002A\u002A*%
X100965000Y-89535000D03*
D10*
X99798274Y-90701726D03*
X99315000Y-89535000D03*
X100965000Y-87885000D03*
X102131726Y-88368274D03*
X99798274Y-88368274D03*
X100965000Y-91185000D03*
X102615000Y-89535000D03*
X102131726Y-90701726D03*
%TD*%
D12*
%TO.C,SW24*%
X148670000Y-83760000D03*
X153670000Y-85960000D03*
D14*
X148170000Y-80010000D03*
D16*
X158890000Y-75810000D03*
D13*
X153670000Y-80010000D03*
D14*
X159170000Y-80010000D03*
D15*
X156945000Y-85960000D03*
X145395000Y-83760000D03*
%TD*%
D13*
%TO.C,SW12*%
X91440000Y-80010000D03*
D16*
X96660000Y-75810000D03*
D14*
X85940000Y-80010000D03*
D12*
X86440000Y-83760000D03*
D14*
X96940000Y-80010000D03*
D12*
X91440000Y-85960000D03*
D15*
X94715000Y-85960000D03*
X83165000Y-83760000D03*
%TD*%
D13*
%TO.C,SW19*%
X129540000Y-60960000D03*
D14*
X124040000Y-60960000D03*
D16*
X134760000Y-56760000D03*
D12*
X129540000Y-66910000D03*
X124540000Y-64710000D03*
D14*
X135040000Y-60960000D03*
D15*
X132815000Y-66910000D03*
X121265000Y-64710000D03*
%TD*%
D13*
%TO.C,SW6*%
X53340000Y-99060000D03*
D12*
X48340000Y-102810000D03*
D14*
X47840000Y-99060000D03*
D12*
X53340000Y-105010000D03*
D16*
X58560000Y-94860000D03*
D14*
X58840000Y-99060000D03*
D15*
X56615000Y-105010000D03*
X45065000Y-102810000D03*
%TD*%
D17*
%TO.C,*%
X141605000Y-91440000D03*
%TD*%
D12*
%TO.C,SW7*%
X72390000Y-47860000D03*
D13*
X72390000Y-41910000D03*
D14*
X77890000Y-41910000D03*
D12*
X67390000Y-45660000D03*
D14*
X66890000Y-41910000D03*
D16*
X77610000Y-37710000D03*
D15*
X75665000Y-47860000D03*
X64115000Y-45660000D03*
%TD*%
D13*
%TO.C,SW25*%
X153670000Y-99060000D03*
D12*
X148670000Y-102810000D03*
D14*
X148170000Y-99060000D03*
D12*
X153670000Y-105010000D03*
D15*
X156945000Y-105010000D03*
X145395000Y-102810000D03*
%TD*%
D14*
%TO.C,SW34*%
X216320000Y-41910000D03*
D12*
X205820000Y-45660000D03*
D16*
X216040000Y-37710000D03*
D13*
X210820000Y-41910000D03*
D14*
X205320000Y-41910000D03*
D12*
X210820000Y-47860000D03*
D15*
X214095000Y-47860000D03*
X202545000Y-45660000D03*
%TD*%
D12*
%TO.C,SW18*%
X129540000Y-47860000D03*
D13*
X129540000Y-41910000D03*
D14*
X135040000Y-41910000D03*
X124040000Y-41910000D03*
D16*
X134760000Y-37710000D03*
D12*
X124540000Y-45660000D03*
D15*
X132815000Y-47860000D03*
X121265000Y-45660000D03*
%TD*%
D11*
%TO.C,REF\u002A\u002A*%
X163195000Y-51435000D03*
D10*
X162028274Y-52601726D03*
X163195000Y-53085000D03*
X161545000Y-51435000D03*
X164845000Y-51435000D03*
X164361726Y-50268274D03*
X162028274Y-50268274D03*
X164361726Y-52601726D03*
X163195000Y-49785000D03*
%TD*%
D12*
%TO.C,SW21A*%
X120015000Y-93110000D03*
X125015000Y-95310000D03*
D13*
X120015000Y-99060000D03*
D15*
X116740000Y-93110000D03*
X128290000Y-95310000D03*
%TD*%
D16*
%TO.C,SW37*%
X235090000Y-56760000D03*
D12*
X229870000Y-66910000D03*
D14*
X235370000Y-60960000D03*
D12*
X224870000Y-64710000D03*
D13*
X229870000Y-60960000D03*
D14*
X224370000Y-60960000D03*
D15*
X233145000Y-66910000D03*
X221595000Y-64710000D03*
%TD*%
D16*
%TO.C,SW9*%
X77610000Y-75810000D03*
D12*
X72390000Y-85960000D03*
D14*
X66890000Y-80010000D03*
D13*
X72390000Y-80010000D03*
D12*
X67390000Y-83760000D03*
D14*
X77890000Y-80010000D03*
D15*
X75665000Y-85960000D03*
X64115000Y-83760000D03*
%TD*%
D16*
%TO.C,SW36*%
X216040000Y-75810000D03*
D14*
X205320000Y-80010000D03*
D12*
X210820000Y-85960000D03*
D14*
X216320000Y-80010000D03*
D12*
X205820000Y-83760000D03*
D13*
X210820000Y-80010000D03*
D15*
X214095000Y-85960000D03*
X202545000Y-83760000D03*
%TD*%
D18*
%TO.C,*%
X115316000Y-99060000D03*
%TD*%
D12*
%TO.C,SW21*%
X124540000Y-102810000D03*
D14*
X135040000Y-99060000D03*
D12*
X129540000Y-105010000D03*
D13*
X129540000Y-99060000D03*
D16*
X134760000Y-94860000D03*
D15*
X132815000Y-105010000D03*
X121265000Y-102810000D03*
%TD*%
D10*
%TO.C,REF\u002A\u002A*%
X199645000Y-70485000D03*
X202461726Y-71651726D03*
D11*
X201295000Y-70485000D03*
D10*
X201295000Y-68835000D03*
X202461726Y-69318274D03*
X202945000Y-70485000D03*
X200128274Y-71651726D03*
X201295000Y-72135000D03*
X200128274Y-69318274D03*
%TD*%
D16*
%TO.C,SW3*%
X39510000Y-94860000D03*
D12*
X34290000Y-105010000D03*
X29290000Y-102810000D03*
D14*
X28790000Y-99060000D03*
D13*
X34290000Y-99060000D03*
D14*
X39790000Y-99060000D03*
D15*
X37565000Y-105010000D03*
X26015000Y-102810000D03*
%TD*%
D18*
%TO.C,*%
X158496000Y-99060000D03*
%TD*%
D17*
%TO.C,*%
X141605000Y-90170000D03*
%TD*%
%TO.C,*%
X141605000Y-50800000D03*
%TD*%
D14*
%TO.C,SW32*%
X186270000Y-80010000D03*
D13*
X191770000Y-80010000D03*
D12*
X186770000Y-83760000D03*
X191770000Y-85960000D03*
D14*
X197270000Y-80010000D03*
D16*
X196990000Y-75810000D03*
D15*
X195045000Y-85960000D03*
X183495000Y-83760000D03*
%TD*%
D14*
%TO.C,SW35*%
X216320000Y-60960000D03*
D12*
X205820000Y-64710000D03*
D13*
X210820000Y-60960000D03*
D14*
X205320000Y-60960000D03*
D12*
X210820000Y-66910000D03*
D16*
X216040000Y-56760000D03*
D15*
X214095000Y-66910000D03*
X202545000Y-64710000D03*
%TD*%
D10*
%TO.C,REF\u002A\u002A*%
X80748274Y-69318274D03*
X80265000Y-70485000D03*
X81915000Y-72135000D03*
D11*
X81915000Y-70485000D03*
D10*
X83081726Y-69318274D03*
X83081726Y-71651726D03*
X81915000Y-68835000D03*
X80748274Y-71651726D03*
X83565000Y-70485000D03*
%TD*%
D14*
%TO.C,SW38*%
X235370000Y-80010000D03*
D13*
X229870000Y-80010000D03*
D12*
X224870000Y-83760000D03*
D16*
X235090000Y-75810000D03*
D12*
X229870000Y-85960000D03*
D14*
X224370000Y-80010000D03*
D15*
X233145000Y-85960000D03*
X221595000Y-83760000D03*
%TD*%
D13*
%TO.C,SW39*%
X229870000Y-99060000D03*
D14*
X235370000Y-99060000D03*
D16*
X235090000Y-94860000D03*
D14*
X224370000Y-99060000D03*
D12*
X224870000Y-102810000D03*
X229870000Y-105010000D03*
D15*
X233145000Y-105010000D03*
X221595000Y-102810000D03*
%TD*%
D17*
%TO.C,*%
X141605000Y-88900000D03*
%TD*%
D12*
%TO.C,SW40*%
X243920000Y-64710000D03*
D14*
X254420000Y-60960000D03*
X243420000Y-60960000D03*
D12*
X248920000Y-66910000D03*
D13*
X248920000Y-60960000D03*
D16*
X254140000Y-56760000D03*
D15*
X252195000Y-66910000D03*
X240645000Y-64710000D03*
%TD*%
D12*
%TO.C,SW14*%
X105490000Y-45660000D03*
D14*
X104990000Y-41910000D03*
X115990000Y-41910000D03*
D12*
X110490000Y-47860000D03*
D16*
X115710000Y-37710000D03*
D13*
X110490000Y-41910000D03*
D15*
X113765000Y-47860000D03*
X102215000Y-45660000D03*
%TD*%
D14*
%TO.C,SW22*%
X159170000Y-41910000D03*
D13*
X153670000Y-41910000D03*
D12*
X153670000Y-47860000D03*
X148670000Y-45660000D03*
D16*
X158890000Y-37710000D03*
D14*
X148170000Y-41910000D03*
D15*
X156945000Y-47860000D03*
X145395000Y-45660000D03*
%TD*%
D12*
%TO.C,SW11*%
X91440000Y-66910000D03*
D14*
X85940000Y-60960000D03*
D16*
X96660000Y-56760000D03*
D14*
X96940000Y-60960000D03*
D13*
X91440000Y-60960000D03*
D12*
X86440000Y-64710000D03*
D15*
X94715000Y-66910000D03*
X83165000Y-64710000D03*
%TD*%
D14*
%TO.C,SW13*%
X96940000Y-99060000D03*
X85940000Y-99060000D03*
D12*
X91440000Y-105010000D03*
X86440000Y-102810000D03*
D16*
X96660000Y-94860000D03*
D13*
X91440000Y-99060000D03*
D15*
X94715000Y-105010000D03*
X83165000Y-102810000D03*
%TD*%
D12*
%TO.C,SW42*%
X248920000Y-105010000D03*
D14*
X254420000Y-99060000D03*
D16*
X254140000Y-94860000D03*
D14*
X243420000Y-99060000D03*
D13*
X248920000Y-99060000D03*
D12*
X243920000Y-102810000D03*
D15*
X252195000Y-105010000D03*
X240645000Y-102810000D03*
%TD*%
D14*
%TO.C,SW31*%
X197270000Y-60960000D03*
D16*
X196990000Y-56760000D03*
D12*
X191770000Y-66910000D03*
D14*
X186270000Y-60960000D03*
D12*
X186770000Y-64710000D03*
D13*
X191770000Y-60960000D03*
D15*
X195045000Y-66910000D03*
X183495000Y-64710000D03*
%TD*%
D14*
%TO.C,SW30*%
X197270000Y-41910000D03*
X186270000Y-41910000D03*
D13*
X191770000Y-41910000D03*
D12*
X186770000Y-45660000D03*
X191770000Y-47860000D03*
D16*
X196990000Y-37710000D03*
D15*
X195045000Y-47860000D03*
X183495000Y-45660000D03*
%TD*%
D17*
%TO.C,*%
X141605000Y-87630000D03*
%TD*%
D12*
%TO.C,SW15*%
X105490000Y-64710000D03*
D14*
X115990000Y-60960000D03*
D16*
X115710000Y-56760000D03*
D13*
X110490000Y-60960000D03*
D14*
X104990000Y-60960000D03*
D12*
X110490000Y-66910000D03*
D15*
X113765000Y-66910000D03*
X102215000Y-64710000D03*
%TD*%
D13*
%TO.C,SW1*%
X34290000Y-60960000D03*
D14*
X28790000Y-60960000D03*
X39790000Y-60960000D03*
D12*
X34290000Y-66910000D03*
X29290000Y-64710000D03*
D16*
X39510000Y-56760000D03*
D15*
X37565000Y-66910000D03*
X26015000Y-64710000D03*
%TD*%
D10*
%TO.C,REF\u002A\u002A*%
X183895000Y-89535000D03*
X182245000Y-87885000D03*
D11*
X182245000Y-89535000D03*
D10*
X183411726Y-90701726D03*
X181078274Y-88368274D03*
X181078274Y-90701726D03*
X183411726Y-88368274D03*
X182245000Y-91185000D03*
X180595000Y-89535000D03*
%TD*%
D17*
%TO.C,*%
X141605000Y-52070000D03*
%TD*%
D16*
%TO.C,SW29*%
X177940000Y-94860000D03*
D12*
X172720000Y-105010000D03*
X167720000Y-102810000D03*
D13*
X172720000Y-99060000D03*
D14*
X178220000Y-99060000D03*
D15*
X175995000Y-105010000D03*
X164445000Y-102810000D03*
%TD*%
D14*
%TO.C,SW16*%
X104990000Y-80010000D03*
D13*
X110490000Y-80010000D03*
D14*
X115990000Y-80010000D03*
D12*
X110490000Y-85960000D03*
D16*
X115710000Y-75810000D03*
D12*
X105490000Y-83760000D03*
D15*
X113765000Y-85960000D03*
X102215000Y-83760000D03*
%TD*%
D18*
%TO.C,*%
X124714000Y-99060000D03*
%TD*%
D14*
%TO.C,SW41*%
X243420000Y-80010000D03*
D12*
X248920000Y-85960000D03*
X243920000Y-83760000D03*
D13*
X248920000Y-80010000D03*
D16*
X254140000Y-75810000D03*
D14*
X254420000Y-80010000D03*
D15*
X252195000Y-85960000D03*
X240645000Y-83760000D03*
%TD*%
D19*
%TO.C,U2*%
X256547620Y-33952180D03*
X256547620Y-36492180D03*
X256547620Y-39032180D03*
X256547620Y-41572180D03*
X256547620Y-44112180D03*
X256547620Y-46652180D03*
X256547620Y-49192180D03*
X241307620Y-49192180D03*
X241307620Y-46652180D03*
X241307620Y-44112180D03*
X241307620Y-41572180D03*
X241307620Y-39032180D03*
X241307620Y-36492180D03*
X241307620Y-33952180D03*
%TD*%
D20*
%TO.C,D26*%
X164465000Y-38990000D03*
X164465000Y-42290000D03*
%TD*%
%TO.C,D16*%
X102235000Y-77090000D03*
X102235000Y-80390000D03*
%TD*%
%TO.C,D4*%
X45085000Y-58040000D03*
X45085000Y-61340000D03*
%TD*%
%TO.C,D36*%
X202565000Y-77090000D03*
X202565000Y-80390000D03*
%TD*%
%TO.C,D3*%
X26035000Y-96140000D03*
X26035000Y-99440000D03*
%TD*%
%TO.C,D42*%
X240665000Y-96140000D03*
X240665000Y-99440000D03*
%TD*%
%TO.C,D35*%
X202565000Y-58040000D03*
X202565000Y-61340000D03*
%TD*%
%TO.C,D23*%
X145415000Y-58040000D03*
X145415000Y-61340000D03*
%TD*%
%TO.C,D10*%
X83185000Y-38990000D03*
X83185000Y-42290000D03*
%TD*%
%TO.C,D5*%
X45085000Y-77090000D03*
X45085000Y-80390000D03*
%TD*%
%TO.C,D27*%
X164465000Y-58040000D03*
X164465000Y-61340000D03*
%TD*%
%TO.C,D20*%
X121285000Y-77090000D03*
X121285000Y-80390000D03*
%TD*%
%TO.C,D9*%
X64135000Y-77090000D03*
X64135000Y-80390000D03*
%TD*%
%TO.C,D29*%
X180975000Y-96140000D03*
X180975000Y-99440000D03*
%TD*%
%TO.C,D40*%
X240665000Y-58040000D03*
X240665000Y-61340000D03*
%TD*%
%TO.C,D22*%
X145415000Y-38990000D03*
X145415000Y-42290000D03*
%TD*%
%TO.C,D8*%
X64135000Y-58040000D03*
X64135000Y-61340000D03*
%TD*%
%TO.C,D15*%
X102235000Y-58040000D03*
X102235000Y-61340000D03*
%TD*%
%TO.C,D1*%
X26035000Y-58040000D03*
X26035000Y-61340000D03*
%TD*%
%TO.C,D7*%
X64135000Y-38990000D03*
X64135000Y-42290000D03*
%TD*%
%TO.C,D17*%
X102235000Y-96140000D03*
X102235000Y-99440000D03*
%TD*%
%TO.C,D39*%
X221615000Y-96140000D03*
X221615000Y-99440000D03*
%TD*%
%TO.C,D12*%
X83185000Y-77090000D03*
X83185000Y-80390000D03*
%TD*%
%TO.C,D11*%
X83185000Y-58040000D03*
X83185000Y-61340000D03*
%TD*%
%TO.C,D24*%
X145415000Y-77090000D03*
X145415000Y-80390000D03*
%TD*%
%TO.C,D28*%
X164465000Y-77090000D03*
X164465000Y-80390000D03*
%TD*%
%TO.C,D34*%
X202565000Y-38990000D03*
X202565000Y-42290000D03*
%TD*%
%TO.C,D32*%
X183515000Y-77090000D03*
X183515000Y-80390000D03*
%TD*%
%TO.C,D2*%
X26035000Y-77090000D03*
X26035000Y-80390000D03*
%TD*%
%TO.C,D33*%
X183515000Y-96140000D03*
X183515000Y-99440000D03*
%TD*%
%TO.C,D37*%
X221615000Y-58040000D03*
X221615000Y-61340000D03*
%TD*%
%TO.C,D30*%
X183515000Y-38990000D03*
X183515000Y-42290000D03*
%TD*%
%TO.C,D14*%
X102235000Y-38990000D03*
X102235000Y-42290000D03*
%TD*%
%TO.C,D6*%
X45085000Y-96140000D03*
X45085000Y-99440000D03*
%TD*%
%TO.C,D21*%
X99695000Y-96140000D03*
X99695000Y-99440000D03*
%TD*%
%TO.C,D19*%
X121285000Y-58040000D03*
X121285000Y-61340000D03*
%TD*%
D19*
%TO.C,U1*%
X41917620Y-33952180D03*
X41917620Y-36492180D03*
X41917620Y-39032180D03*
X41917620Y-41572180D03*
X41917620Y-44112180D03*
X41917620Y-46652180D03*
X41917620Y-49192180D03*
X26677620Y-49192180D03*
X26677620Y-46652180D03*
X26677620Y-44112180D03*
X26677620Y-41572180D03*
X26677620Y-39032180D03*
X26677620Y-36492180D03*
X26677620Y-33952180D03*
%TD*%
D20*
%TO.C,D41*%
X240665000Y-77090000D03*
X240665000Y-80390000D03*
%TD*%
%TO.C,D13*%
X83185000Y-96140000D03*
X83185000Y-99440000D03*
%TD*%
%TO.C,D31*%
X183515000Y-58040000D03*
X183515000Y-61340000D03*
%TD*%
%TO.C,D25*%
X145415000Y-96140000D03*
X145415000Y-99440000D03*
%TD*%
%TO.C,D38*%
X221615000Y-77090000D03*
X221615000Y-80390000D03*
%TD*%
%TO.C,D18*%
X121285000Y-38990000D03*
X121285000Y-42290000D03*
%TD*%
M02*
